<svg id="brazil-map" viewBox="0 0 760 840" xmlns="http://www.w3.org/2000/svg">
  <path id="br-AC" data-uf="AC" data-name="Acre" class="state-path" d="M6.4,268.5L124,327.3L122.2,328.4L120.2,330.5L119.2,331.9L117.6,334L115.4,335.6L112.8,335.7L111.3,336.9L109,339L106.5,342L104.2,343.1L102.3,342.7L99.8,343.3L98.8,345.8L97,348.6L94.4,350.6L92,352.2L87.8,350.4L86,350.5L84,350.4L82.1,349.7L80,349.2L77.7,349L76.2,349.2L73.6,349.2L70.6,348.8L67.9,348.8L66.4,349.8L64.4,351.1L61.7,351.7L58.9,349.5L57.6,324L57.2,320.7L57.7,318.6L58.6,317.2L57.1,316.7L55.5,318.7L53.8,320.7L51.6,323.1L47.6,326L44.1,328.5L30.9,324.6L29.2,321.1L27.3,317.7L24.5,317.4L22.4,316.8L13.4,315.2L16.3,311.9L17.5,307.3L15.2,302.7L12,298.9L10,295.6L7.6,292.2L6,286.1L3.7,283.5L4.2,279.9L0.9,277.1L0.5,272.1L3.3,271.5L3.9,268.3Z" />
  <path id="br-AL" data-uf="AL" data-name="Alagoas" class="state-path" d="M648.6,303.4L651.6,304.5L653.9,305.4L652.6,308L651.9,309.8L651.2,311.4L650.2,313.2L649.3,314.1L648.1,315.9L647.6,316.9L646.5,318.4L645.6,319.4L644.8,321.5L643.4,322.3L642,324.3L640.3,327.5L638.4,330.5L637.1,332.1L635.3,334.4L634.5,336.5L633,339.5L630.9,337.9L629.3,334.6L626.9,334L624.6,331.8L623.5,329.7L620.5,326.9L616.7,324.1L611.2,321.1L608.9,319.9L605.5,317.3L603.1,316.5L602.7,313.5L605.1,310.8L606.7,309.5L608.4,307.1L608.9,305.2L610.2,304.7L611,306.1L612,307.6L614.2,306.5L617.3,309.2L618.8,311.6L619.9,312.9L621.9,313.8L623.9,315L625.3,313.2L628.9,314.1L629.9,314.3L631.6,312.4L632.8,312L634.4,311.1L635.6,311L635.6,309.4L637.1,308.1L638.6,305.4L641,304.5L642.9,304.2L643.7,305.2L646.1,304.4L647.5,303.5L648.6,303.4Z" />
  <path id="br-AM" data-uf="AM" data-name="Amazonas" class="state-path" d="M112.2,69.7L133,97.1L140.8,92.1L142.6,99L147.9,93.6L153,86.7L160,82.1L164.6,81L167.7,71.5L174.4,68.7L190,71.7L193.1,103L198.6,121.3L194.7,128.5L200.8,137.1L209,138.7L215,124.3L223.2,131.9L229.6,126.8L233.2,112.5L256.9,125.5L263.1,137L271.9,144.4L279.8,150.3L290.1,156.7L301.2,157.1L265.8,267.3L262.7,295.1L204.5,302.1L195.8,296.6L187.9,285.5L168.4,298.3L156.4,307L148.4,316.4L139.1,319.3L127.6,316.1L4.4,264.5L9.3,256.6L14.7,252.2L13.5,242.6L17.2,234.6L18.8,224.4L25.3,219.8L30.8,215.2L36.9,210.1L43,209.4L49,208.1L55.4,203.7L62.3,203.4L66.4,206.9L76.4,146.2L75.2,132.9L72.4,123.5L66.4,113.8L74.5,98.7L81.9,99.7L77.4,90.3L71.3,76.1L96.8,75.1L104.1,70.7Z" />
  <path id="br-AP" data-uf="AP" data-name="Amapá" class="state-path" d="M384,27.1L385.7,31.5L385.7,39L386.5,45.5L388.1,53.1L389.9,59.2L391.2,62.2L392.1,67.3L397.6,68L401.4,74.6L406,81.4L405.7,87.8L403.2,95L398.6,98.8L385.3,115.4L375.5,135.2L369.2,139.1L363.1,135.7L361.8,129.5L358.5,121.5L353,111.2L350.9,101.6L347.4,94.2L346.4,87.6L342.4,84.3L340.1,82.9L337.8,81.8L334.7,79.5L332.5,77.4L330.8,75.9L327,75.2L323.9,73.1L323,67.9L323.2,63.7L337.2,65.1L338.5,63.6L339.7,63L341,63.2L342.4,64.1L344.3,64.8L346.3,64.1L348.2,63.6L349,65.5L349.5,66L352.9,66.7L355.1,66.2L356.1,64.3L358.4,62.8L360.1,60.2L361,57.2L362,54.2L363.8,50.7L364.4,46.7L365,44.6L367.1,42L369.2,37.6L370.9,33.2L373.3,30.1L376.1,26.4L377.4,20.1L383.2,23.9Z" />
  <path id="br-BA" data-uf="BA" data-name="Bahia" class="state-path" d="M584.3,297.8L597.2,305.9L605.3,319.6L609.9,332.9L603.2,344L604.7,353.2L606.9,359.2L611.8,361.6L612.3,371.7L600.7,391.6L593.4,395.2L590.7,403.9L590.3,412.7L589.1,422.7L589.1,441.3L590.3,458.8L587.7,469.9L586.1,480.8L584.6,497.8L568.5,500L564.5,491.6L563,479.7L567,472.5L572.7,464.7L572.1,457.7L568.7,454.5L562.5,453L554.7,451.8L536,438.7L526.8,434.1L519.4,429.2L511.2,431L508,423.2L504.7,420.8L499.2,420.4L494.1,423.4L490.6,427.1L483.7,432.1L477.2,436.9L469.8,441.7L471.4,429L470.8,420.3L466.8,409.1L469.1,399.5L468.3,392.9L467,382.4L464.8,372.2L469.8,364.1L465.9,348.7L476.2,332.3L485.5,346.8L499.1,340.6L510.1,330.1L512.6,313.8L522.4,317.3L533.2,314.2L546.3,305.9L553.7,302.5L561,311.2L566.6,314.5L580.4,298.7Z" />
  <path id="br-CE" data-uf="CE" data-name="Ceará" class="state-path" d="M572,174.5L574.1,175.5L577.9,178.3L581.1,180.9L585.1,183.1L588,186.7L591.7,189.7L595,192.7L597.9,193.4L600.8,198.2L603.9,202.6L607.9,207.3L610.6,210.4L614.5,213.1L617.6,215.1L609.9,224.1L607.7,231.5L604.7,236.7L602.9,241.6L599.8,244.5L597.5,246.7L596.3,250.4L596.4,252.4L595,256.1L595.4,259.3L593.9,261.7L593.1,264L594.5,267.9L596.8,269.9L595.1,274.1L594,276.9L592,279.6L589.8,282.2L587.3,280.5L584,278.1L581.6,273.9L574.1,271.4L563.6,270.9L565.1,264.4L564.8,259.6L558.9,252.7L557.3,242.7L556.9,233.8L556.7,229.2L556.6,226.4L555,223.3L552.1,219.7L551.2,215.8L551.9,211.4L553.3,202.8L551.5,200.2L550.9,196.4L549.9,192.8L549.9,188.1L548.9,184.2L550.7,177.3L554,175.8L558,175.2L562.8,174.3L567.9,174L571.2,174.5ZM571.9,174.5L572,174.5L571.8,174.5L571.9,174.5Z" />
  <path id="br-ES" data-uf="ES" data-name="Espírito Santo" class="state-path" d="M560.1,562.1L558.6,564.8L557.4,568.7L556.1,571.7L554.2,570.5L552.3,570.7L550.9,570.6L549,569.7L547.2,569.4L544.6,568.6L543.4,567.8L543.4,565.3L543,562L541.8,561.2L540.9,559.2L541.5,557.4L542,554.3L541.9,550.6L548.5,548.4L549.9,545.3L551.5,542.3L552.4,538.4L553.9,535.4L555.9,533.2L556.5,530.2L556.7,527.9L556.4,525.6L554.8,524L554.3,521.2L552.8,519.6L551.5,518.1L556.4,518.7L554.9,514.8L552.9,509.8L553.7,506L555,504.3L557.1,503.4L559.3,504.3L558.9,500.5L561.1,501.2L563.5,498.7L566.5,499.3L577.5,507.8L576.8,512.9L576.6,520L577.5,529.1L575.5,536.1L571.8,539.3L570.7,541.9L569.8,544L569.2,547.5L567.9,549.8L567.4,551L566.9,553.2L565.1,557.7L564,558.2L563,559.9L561.7,562.1L561.2,561.4ZM564.3,558.2L564.3,558.1L564.4,558L564.4,558.1L564.4,558.2L564.3,558.2L564.3,558.2ZM560.1,562.2L560.1,562.1L560.2,562.2L560.1,562.2Z" />
  <path id="br-GO" data-uf="GO" data-name="Goiás" class="state-path" d="M401.3,380.6L398.7,389.4L404.7,392.4L418.3,389.4L424.3,390.8L427.9,397.3L429.8,399L433.6,397.2L437,399.2L443.4,398.2L447.2,399.5L453.2,396.8L463.9,391.9L468.5,392.8L466.7,400.7L468.2,405.5L467.9,417.4L471,424.9L470.6,433.6L464.2,431.1L460.4,438.2L457.3,452.5L450.1,458.3L448.2,454.8L446.6,447.1L437.2,459L448.8,463.4L447.9,470.3L450.5,474.3L452.2,479.5L449.8,482L447.3,486.1L446.4,490.4L448.4,498.1L447.2,503.9L442.9,508.7L438,510.7L427.9,507.9L417.6,509.9L408.4,514.2L395.3,521.1L386.6,531.1L380.9,527L374.8,524.6L370.1,521.9L365,519L356.8,515.4L351.6,506.5L349.3,492.4L350,486.7L352.2,481.1L354,476.4L357.9,471.5L358.6,465.6L365.4,457.2L375.3,446.8L385.7,434.3L389.7,412.7L394.8,393L397.4,384.5Z" />
  <path id="br-MA" data-uf="MA" data-name="Maranhão" class="state-path" d="M453.9,306.9L456,299L459,293.9L460,283.6L455.1,286.5L451,282.3L448.9,278.4L443.1,269.7L446.5,237.7L427.3,228.4L447,205.7L450.8,199.2L453.8,190.4L456.3,185.2L459.4,180.3L461.3,174.3L464,167.2L467.2,153.9L469.1,139.4L472.1,137.6L473.8,137.5L474.2,139.3L476,139L477.7,141.9L479.4,143.7L480.2,145.6L481.8,143.4L481.8,145.3L481.9,150.3L486,144.7L488.8,145.4L490.5,145.7L492.2,148.3L492.1,149.5L492.8,152.1L494.9,153.1L495.4,154.6L497.7,160.3L501.1,166.8L503.4,166.4L521.5,166.3L526.3,168.5L537.3,171.3L541.6,178.6L532,187.7L523.7,202.8L524.5,222.4L520.2,240.7L523.2,256.5L508.3,257.9L496.1,268.8L486,275.2L479.9,280.3L478.5,287.2L475,299L472.5,309.6L473.9,319.6L473.2,331.2L461.5,324.3L457.5,312.8ZM488.6,142.4L488.6,142.1L488.9,142.2L489.1,142.3L488.8,142.1L488.8,141.9L488.8,141.9L488.6,141.7L488.6,141.7L488.4,141.6L488.6,141.1L488.7,141L489,141.1L489.3,141.1L489.4,141.4L489.4,141.5L489.4,141.3L489.3,141L489.9,141L490,141.1L490.5,141.4L490.7,141.9L490.7,142L490.7,142.2L490.2,142.6L490.3,142L490.2,142.2L490,142.2L489.9,142.1L489.8,142.1L490,142.2L489.6,142.4L489.7,142.4L489.9,142.3L489.9,142.5L489.4,143L489.4,143L489.2,143.1L489,143.3L488.8,143.6L488.7,143.6L488.6,143.6L488.4,143.8L488.2,143.6L487.9,143.3L487.8,142.6L487.9,142.5L488,142.4L488.1,142.3L488,142.3L487.8,142.4L487.7,142L488,141.9L488.2,142L488.4,142.1L488.5,142.2L488.5,142.4L488.4,142.6L488.4,142.6L488.4,142.7L488.6,142.4ZM476.7,141.4L476.5,141.2L476.6,140.8L477,140.4L477.1,140.8L477.1,140.8L477.3,140.9L477.3,140.9L477.2,141L477.2,141.1L477.1,141.2L477.2,141.1L477.2,141.1L477.3,140.9L477.3,140.8L477.2,140.6L477.3,140.4L477.4,140.3L477.3,139.4L477.4,138.8L477.5,138.4L477.5,138.1L477.7,137.8L477.7,137.9L477.7,137.7L477.5,137.7L477.5,137.6L477.6,137.5L477.7,137.5L477.8,137.6L477.9,137.6L477.9,137.7L477.9,138L478,138.5L477.9,138.7L477.8,138.8L477.8,138.7L477.8,138.7L477.8,138.8L477.6,139.1L477.4,139.7L477.4,139.8L477.4,140L477.6,140L477.6,140.1L477.6,140.3L477.6,140.4L477.6,140.4L477.6,140.6L477.4,140.9L477.4,141.2L477.3,141.4L477.3,141.4L477.3,141.7L477.4,142.2L477.4,142.1L477.4,142.4L477.4,142.5L477.4,142.5L477.3,142.6L476.6,142.7L476.4,142.8L476.4,142.7L476.7,142.5L476.7,142.5L476.8,142.4L476.7,142.3L476.7,142.2L476.6,142.2L476.5,142.1L476.6,141.9L476.6,141.9L476.7,141.8L476.8,141.7L476.7,141.4ZM491.4,146.4L491.3,146.4L491.5,146.4L491.6,146.4L491.6,146.4L491.6,146.5L491.7,146.5L491.7,146.6L491.7,146.8L491.6,147L491.5,147.1L491.4,147.1L491.3,147.1L491.3,147.1L491.2,147L491.1,146.9L491,146.6L491,146.6L491.1,146.5L491.3,146.3L491.3,146.3L491.4,146.2L491.5,146.1L491.5,145.8L491.5,145.7L491.6,145.6L491.9,145.4L491.9,145.4L491.9,145.4L492,145.4L492.1,145.4L492,145.6L491.8,145.9L491.7,146.2L491.6,146.3L491.6,146.3L491.5,146.3L491.4,146.4ZM491.9,146.3L491.8,146.4L491.7,146.3L491.7,146.3L491.7,146.2L491.8,146L492.1,145.5L492.1,145.3L492.1,145.3L491.9,145L491.9,144.9L492.1,144.9L492.2,144.8L492.4,145.1L492.5,146L492.4,146.1L492.4,146.2L492,146.2L491.9,146.3ZM476.6,139.2L476.6,139L476.8,139.3L476.9,139.6L476.9,139.6L477,139.7L477,139.7L477,139.8L477,140L477,140.2L476.9,140.4L476.7,140.5L476.6,140.6L476.6,140.5L476.5,140.4L476.4,140.2L476.4,140.2L476.3,140L476.3,139.7L476.4,139.6L476.5,139.7L476.4,139.6L476.5,139.3L476.6,139.6L476.7,139.6L476.6,139.5L476.6,139.2ZM479,139.2L479,139.3L479.1,139.4L479.2,139.4L479.2,139.6L479.3,139.8L479.2,139.7L479.2,139.9L479.1,140L479.1,139.9L479,139.9L478.7,139.9L478.4,140L478.2,140.3L478.1,140.3L478.1,140.2L478.4,139.8L478.5,139.5L478.6,139.5L478.6,139.6L478.7,139.5L478.6,139.4L478.5,139.4L478.6,139.3L478.5,139.1L478.5,139.1L478.7,139L478.8,139L478.9,139.1L479,139.2ZM494.5,152L494.6,151.9L494.7,151.8L494.8,151.7L494.9,151.6L494.9,151.5L494.9,151.5L495.2,151.8L495.2,151.8L495.2,151.9L494.8,152.1L494.8,152.3L494.8,152.5L494.8,152.5L494.8,152.5L494.7,152.6L494.6,152.6L494.6,152.6L494.6,152.6L494.5,152.5L494.5,152.2L494.5,152ZM492.7,147.1L492.2,147.5L492.2,147.4L492.2,146.9L492.4,146.8L492.4,146.6L492.5,146.6L492.7,146.7L492.8,146.7L492.8,146.8L492.8,146.8L492.7,147.1ZM474.6,137.7L474.7,137.9L474.6,138.2L474.5,138.2L474.4,138.2L474.4,138.2L474.3,138.2L474.3,137.7L474.3,137.6L474.5,137.4L474.6,137.4L474.7,137.5L474.7,137.5L474.7,137.6L474.6,137.7ZM474.7,139L474.8,139L474.9,139.1L475,139.3L475,139.3L475,139.2L475,139.5L474.9,139.9L474.8,139.8L474.8,139.7L474.7,139.6L474.6,139.2L474.7,139ZM478.7,142.1L478.8,141.8L478.8,141.7L479,141.6L479.1,141.5L479.1,141.6L479.1,141.6L479.1,141.8L479.2,141.8L479.1,142L479,142.1L478.8,142L478.7,142.1ZM486.6,144L486.5,144.3L486.5,144.2L486.5,144L486.6,143.6L486.6,143.6L486.8,143.1L486.8,142.9L486.9,142.9L487,143L486.9,143.1L487,143.3L486.8,143.4L486.8,143.4L486.8,143.4L486.8,143.5L486.6,144ZM486.5,145.1L486.6,144.7L486.9,144.9L486.9,145L486.9,145.2L486.5,145.1L486.5,145.1ZM487.5,143.4L487.4,143.3L487.3,142.8L487.3,142.5L487.3,142.4L487.4,142.4L487.4,142.4L487.4,142.5L487.5,142.8L487.5,143.3L487.5,143.4ZM492.3,149.9L492.6,149.7L492.6,149.8L492.7,149.9L492.5,150.1L492.3,149.9L492.3,149.9ZM476.6,141.4L476.7,141.4L476.7,141.7L476.6,141.8L476.6,141.7L476.6,141.7L476.5,141.6L476.5,141.6L476.4,141.5L476.5,141.2L476.5,141.2L476.5,141.2L476.6,141.4ZM497,158.1L497,158.2L496.8,158.1L497.5,157.7L497.3,158L497,158.1ZM496.8,158.8L496.9,158.7L496.9,158.6L497,158.7L497.1,158.7L497,158.8L497.1,159L497.1,159.1L497.1,159.1L497,159.2L497,159L496.9,159L496.8,158.9L496.9,158.9L496.8,158.8ZM481.4,143.5L481.4,143.7L481.4,143.7L481.2,144L481.2,143.9L481.2,143.9L481.1,143.8L481.3,143.5L481.3,143.5L481.4,143.5ZM486.9,144.6L486.9,144.7L486.8,144.4L486.9,144.1L487,144.2L487.1,144.4L487,144.4L486.9,144.5L487,144.5L486.9,144.6L486.9,144.6ZM492.8,149.2L492.8,149.3L492.8,149.3L492.8,149.4L492.8,149.5L492.5,149.5L492.5,149.5L492.6,149.3L492.8,149.2ZM497.4,157L497.2,157.1L497.3,157L497.3,156.9L497.4,156.8L497.4,156.7L497.5,156.8L497.5,156.9L497.4,157ZM494.4,152.5L494.4,152.6L494.4,152.5L494.3,152.3L494.3,152.2L494.3,152.1L494.3,152L494.3,151.9L494.5,152.2L494.4,152.5ZM486.6,144.3L486.6,144.1L486.7,144L486.8,144L486.7,144.5L486.7,144.4L486.6,144.4L486.6,144.3ZM479.4,143.7L479.3,143.7L479.3,143.6L479.4,143.4L479.5,143.4L479.5,143.3L479.5,143.4L479.6,143.4L479.5,143.5L479.5,143.5L479.4,143.7ZM487.3,142L487.4,142.1L487.4,142.3L487.2,142.4L487.2,142.1L487.3,142ZM474.8,140.3L474.7,140.3L474.6,140.2L474.6,140.1L474.7,140L474.8,140L474.8,140.3ZM488.1,143.6L488.1,143.6L488.1,143.6L488.1,143.8L488,143.8L488,143.7L487.8,143.5L487.9,143.5L488.1,143.6ZM494.6,152.8L494.6,152.8L494.6,152.7L494.6,152.7L494.7,152.6L494.7,152.8L494.8,152.9L494.7,152.9L494.6,152.8L494.6,152.8ZM477.5,141.8L477.6,141.9L477.6,141.9L477.6,142L477.5,142.3L477.5,142.2L477.5,142L477.5,141.8L477.5,141.8ZM490.9,147L491.1,147.1L491.2,147.1L491.2,147.3L491.1,147.2L491,147.1L490.9,147ZM478.6,140.6L478.7,140.6L478.7,140.7L478.7,140.7L478.6,140.8L478.6,140.8L478.5,140.9L478.5,140.8L478.6,140.6L478.6,140.6ZM526,168.2L526.1,168.5L526,168.4L525.9,168.3L525.9,168.5L525.8,168.5L525.8,168.4L525.9,168.3L525.9,168.3L526,168.2ZM504.8,165.1L504.9,165L504.9,164.9L505,165.1L504.9,165.1L504.8,165.1ZM494.6,151.9L494.5,151.9L494.5,151.8L494.6,151.7L494.7,151.7L494.8,151.7L494.6,151.9ZM477.3,141.7L477.4,141.5L477.4,141.5L477.4,141.4L477.4,141.7L477.4,141.7L477.4,141.9L477.3,141.7ZM477.1,142.7L477.3,142.7L477.3,142.8L477.2,142.8L477.1,142.7ZM477.3,140.3L477.2,140.4L477.2,140.3L477.2,140.2L477.3,140.2L477.3,140.2L477.3,140.2L477.3,140.3L477.3,140.3ZM504.7,165.1L504.8,165.1L504.8,165.2L504.7,165.2L504.7,165.3L504.7,165.2L504.7,165.1L504.7,165.1ZM485.7,145.1L485.8,145L485.8,145.1L485.8,145.1L485.8,145.2L485.8,145.1L485.7,145.1ZM491.9,147.2L491.7,147.3L491.8,147.2L491.9,147.1L491.9,147.2ZM490.2,142.3L490.2,142.4L490.1,142.3L490.2,142.3L490.2,142.3L490.2,142.3ZM487.4,143.4L487.5,143.4L487.5,143.5L487.4,143.6L487.4,143.4ZM485.8,145.5L485.9,145.4L485.9,145.5L485.8,145.6L485.8,145.5ZM497.2,159.4L497.2,159.3L497.3,159.3L497.3,159.4L497.2,159.4ZM474.4,140.5L474.4,140.5L474.4,140.5L474.4,140.6L474.3,140.6L474.4,140.5ZM453.9,306.8L453.9,306.9L453.9,306.8L453.8,306.8L453.8,306.7L453.9,306.8L453.9,306.8ZM486.3,143.6L486.3,143.6L486.3,143.7L486.3,143.6ZM486.2,143.4L486.3,143.5L486.3,143.5L486.2,143.4ZM478.7,140.6L478.7,140.5L478.7,140.6L478.7,140.6ZM492.2,147.7L492.2,147.6L492.2,147.7L492.2,147.7ZM475.2,139L475.3,139L475.3,139.1L475.2,139Z" />
  <path id="br-MG" data-uf="MG" data-name="Minas Gerais" class="state-path" d="M501.4,420.1L507.3,421.6L509.9,430.4L519.6,429.2L528.3,435L541.1,438.9L559.8,451.1L568.5,454L572.2,457.8L571.2,467.3L567.7,476.8L562.5,488.3L569.3,497.8L559.6,501.1L554.3,504.8L555.6,519L555.2,524.4L555.3,533.4L549.9,545.3L541.1,557.3L536.6,564.6L534.4,573.9L530.8,582.5L519.2,587.7L509.8,588.8L501.9,592.1L493.7,595.1L481.4,601.1L475.2,601.7L471.9,605.5L463.4,602.1L460.5,596.2L460.1,588.4L462.8,577.5L456.3,574.3L452.1,567L449.5,553.3L442.6,543.6L427.8,546.8L415.5,543.3L388.8,543.8L392.6,525.4L408.9,513.7L420.9,508.6L435.4,509.9L443.5,508L449.3,502.3L449.1,491.1L447.3,485.2L451,480.9L450.9,475.5L447.5,470L448.7,460.5L457.6,455.4L462.3,437.6L466.9,434.8L471.2,440.6L480.5,435.1L488.9,428.4L493.6,424L499.6,420Z" />
  <path id="br-MS" data-uf="MS" data-name="Mato Grosso do Sul" class="state-path" d="M338.7,499.3L342,500.8L348.4,500.8L355.4,511L361.3,515.1L367.2,519.3L371,521.9L375.1,524.8L380.9,527.2L386.5,530.3L386.7,543.2L376.5,561L368.5,581.6L347.9,603.5L335.1,626.3L328.4,627.8L324.2,627.2L320,629.3L315.2,629.8L312.2,626.2L310.9,620.8L310.7,614L309.2,608.1L309.4,602.6L307.3,596.6L303.1,593.1L299,592.6L296.2,588.7L293.6,591L291.1,592.2L288.1,592.6L284.5,592.4L280.9,592L278,591.1L274.7,589.2L270.4,589.3L270.4,584.2L269.8,577.3L271.5,568.5L270.9,562.9L270,559.1L267.6,551.3L268.1,546.3L278.2,505.7L272.9,492L275.3,494.8L280.9,496.9L286.4,492.6L290.5,486.4L295,485.9L299.4,484.3L303.3,484.8L308.2,486.9L310.9,489.6L315.2,491.6L318.6,493.1L323.8,491.4L329.6,491.3L335.1,492.7L341.5,484.3L338.1,499.1ZM338.7,499.1L338.7,499.3L338.7,499.2L338.7,499.1Z" />
  <path id="br-MT" data-uf="MT" data-name="Mato Grosso" class="state-path" d="M229.5,399.7L233.3,392.5L238.8,379.7L234.9,369.5L233.6,365.7L235.8,360.3L234.8,352.9L228.2,351.1L210.7,342.6L208.8,332.2L210.6,321L209.8,312.2L262.3,299.4L262.8,282.5L274.9,291.7L283.7,307.1L359.8,321.9L393.8,342.9L391.4,359.8L392.5,375.1L393.6,388.5L392.7,401.6L387.3,423.4L378.1,437.9L372.1,454.2L361,461.4L359.6,469L356.2,474.5L352.8,478.1L351.3,482.5L349.8,488.2L349.9,495.1L345.7,500.9L339.8,500.2L337.9,496.9L337.4,489.3L331.1,493.6L325.3,490.3L319.3,493.1L315.4,491.9L310.9,489.6L307.8,486.7L302.7,484.6L298.4,484.6L293,486.5L288.9,489.4L283.5,496.1L276.7,497L271.2,489.1L265.1,487L262.5,481.7L261.3,477.8L263.3,467.2L231,428.2L228.8,423.8L227.6,419.4L229.1,414.7L227.3,411L224.6,409L226.2,405.1ZM229.4,399.7L229.5,399.7L229.4,399.8L229.4,399.7Z" />
  <path id="br-PA" data-uf="PA" data-name="Pará" class="state-path" d="M455.2,129.3L457.2,129.8L458.4,131.8L460.7,132L462.4,134L463.2,135.4L465.7,136.2L467.5,134.7L469.7,135.7L466.1,150.7L464,166.4L461.5,174.6L458.8,181.5L455.3,187.1L453,196.1L448.1,204.2L426.1,229.2L431.4,245.8L417.6,268.3L408.5,305L290.2,315.9L275.1,297.6L262.7,263.4L296.7,159.5L284.3,151.8L275.1,147.6L266.6,139.8L257.4,128.1L254.6,87.4L259.4,86.2L260.7,82L264.6,79.7L269.6,79.5L273.1,76.2L277.4,76.1L280.9,70.6L284.9,71.1L290.1,72.7L295.1,71.4L300.8,73.4L304.4,70.6L300.8,64.8L303.1,60.1L307.6,61.7L323.2,65.2L326.8,75.2L334.1,78.1L340.4,83.4L346.2,91.4L353.8,112.9L362.8,133.6L378.4,125.6L406.7,106.3L414.6,113.5L430.4,119L440.1,127.1L443.5,126.1L446.3,126.9L450.8,128.2L453.3,129.2ZM464.5,134L464.4,134.1L464.4,134L464.4,134.2L464.3,134.3L463.9,134.7L463.9,134.5L464,134.3L464,134.1L464.1,134.1L464.2,133.9L464.3,133.8L464.3,133.6L464.3,133.5L464.4,133.5L464.5,133.5L464.5,133.7L464.6,133.7L464.5,133.9L464.5,134ZM470,136.4L470.1,136.5L470.2,137L470.1,137.2L470.1,137.1L470.1,137.1L470.1,137.1L470.1,137.1L470,137L469.8,136.7L469.8,136.6L469.7,136.5L469.8,136.3L469.9,136.2L469.9,136.2L470,136.3L470,136.4ZM453.8,128.4L453.8,128.3L453.9,128.3L454,128.3L454,128.4L454.2,128.4L454.3,128.5L454.2,128.6L454.1,128.6L454,128.6L454,128.7L453.9,128.7L453.8,128.5L453.8,128.4ZM464.9,134.9L464.9,135.1L464.9,135.2L464.8,135.3L464.8,135.1L464.8,135.1L464.8,134.8L465,134.7L465,134.8L464.9,134.9ZM440.2,127.7L440.3,127.6L440.4,127.5L440.4,127.6L440.4,127.7L440.3,127.7L440.3,127.8L440.3,127.8L440.2,127.7ZM463.8,135.2L463.7,135.2L463.7,135.2L463.9,135L463.9,135.1L463.9,135.1L463.9,135.2L463.8,135.2ZM465.8,133.9L465.8,133.8L465.9,133.8L465.9,133.9L465.9,133.9L465.8,133.9L465.9,134L465.8,134L465.8,133.9ZM461,131.3L461,131.2L461.1,131.2L461.1,131.3L461.1,131.4L461,131.3ZM461,131.9L461,131.8L461.1,131.8L461.1,131.9L461.1,132L461,131.9ZM453.8,129L453.7,129L453.7,128.9L453.7,128.9L453.8,128.9L453.9,128.9L453.8,129ZM463.4,134.2L463.3,134.2L463.4,134.1L463.4,134.1L463.4,134.2ZM467.8,133.7L467.8,133.6L467.9,133.7L467.8,133.7ZM455.2,129.4L455.2,129.3L455.3,129.4L455.2,129.4ZM454.1,128.9L454.1,128.8L454.1,128.9L454.1,128.9ZM466.7,133.5L466.8,133.5L466.8,133.6L466.7,133.5Z" />
  <path id="br-PB" data-uf="PB" data-name="Paraíba" class="state-path" d="M619,243.4L618.9,247.2L616.1,253.7L617.5,257.4L622.3,258.3L626.8,262.3L631,260.2L632.2,255.5L634.4,248.7L638.8,251.9L646,252.5L648.3,253.1L653.1,254.4L656.8,253.2L657.5,258.8L658.9,263.4L659.3,266.1L659.8,270.5L659.6,274.6L657.6,275.5L653.9,272.6L650.3,273.6L647.6,276.8L644.8,279.2L640.8,281L636,280.6L632.3,283.4L629.1,285.3L626.8,289.9L621.2,290.8L620.2,285.9L617.7,285L618.7,281.9L619.5,278.2L622.8,274L620.1,271.4L614.6,272.6L611.3,275.9L609.4,277.7L605.8,280.6L602.7,281.4L600.6,279.4L596.9,280.3L594.8,278.3L595,275.5L596.5,271.8L595.5,268.4L593.9,264.5L593.5,262L595.3,259.6L595.1,256.7L596,253.3L596.2,250.7L597.8,250.8L601,253.3L605,252.3L607.2,251.6L609.7,247.9L613.8,245.9L618.2,243.8ZM658.8,263.8L658.9,263.8L659,263.8L659,263.7L659,263.8L659,263.8L659,264.1L658.9,264.3L658.9,264.4L658.8,264.4L658.8,264.4L658.7,264.3L658.7,264.1L658.7,264L658.7,264L658.7,263.9L658.7,263.7L658.8,263.8Z" />
  <path id="br-PE" data-uf="PE" data-name="Pernambuco" class="state-path" d="M619.8,270.8L622.9,274.3L620.4,280.2L617.6,284.1L619.8,285.5L621.2,291L627.6,289.3L630,283.6L635.1,282L640.7,281.1L645.9,278.7L647.9,274.6L652.6,272.3L657.1,275.7L659.4,277L659.1,282.2L657.8,289.8L656.7,295.5L655.1,300.4L653.9,305.2L648.3,303.4L644.9,305L641.1,304.2L636.6,308.1L634.8,310.8L631.9,312.2L628.8,314.1L623.2,315L618.9,312L614,306.4L610.6,305.4L608.5,306.9L604.9,310.9L601,307.7L594.4,306.1L585.6,300.9L580.3,298.8L574.4,303.4L566.9,313.4L559.3,316.9L560.6,312.2L558.1,307.2L554.6,302.6L552.2,300.9L552.4,298.3L556.9,295.1L559.2,291.7L562.2,288.2L561.2,273.7L575.4,271.2L583.9,276.4L585.9,279.2L589.9,281.8L592.7,278.5L595.6,279.5L599.7,279.2L602.5,281.5L606.1,280.9L610.1,278.6L613.9,273.8L619.4,270.5ZM700.1,196.1L700.2,196L700.3,196.2L700.3,196.2L700.3,196.3L700.4,196.4L700.3,196.4L700.3,196.5L700.2,196.5L700.1,196.5L700.1,196.5L700,196.6L700,196.6L699.9,196.6L699.9,196.6L699.9,196.7L699.9,196.7L699.8,196.7L699.8,196.7L699.8,196.8L699.8,196.9L699.8,196.8L699.7,196.8L699.6,196.8L699.5,196.8L699.5,196.8L699.4,196.9L699.3,196.9L699.3,196.9L699.3,197L699.2,196.9L699.2,197L699.1,196.9L699.2,196.8L699.3,196.6L699.4,196.6L699.5,196.4L699.5,196.3L699.6,196.3L699.6,196.3L700.1,196.1ZM700.2,196L700.2,195.9L700.3,195.9L700.3,196L700.2,196Z" />
  <path id="br-PI" data-uf="PI" data-name="Piauí" class="state-path" d="M543,173.8L548.4,176.1L551.1,179.6L549.9,188.1L551.1,193.7L551.2,200.1L553.4,206.5L552,214.7L553.2,221L556.6,225.5L556.9,229.8L557,238.2L559,253.3L565.3,261L563.7,270.6L563.1,284.8L559.2,291.1L556.2,294.8L551.9,298.9L546.4,305.7L540.6,312.6L532.5,315.4L525.8,319.9L521.7,316L517,316.2L507.6,320.4L510,327.1L506.4,337L500.3,342L492.3,345.6L485.6,346.8L480.9,336.6L473.3,333.9L473.8,327.8L474.1,322.3L474.8,317.1L473,312.3L471.5,305.3L474,301.1L476,294.3L478.4,288.1L479.1,283.6L479.8,280.2L481.3,278L486,275.2L491.1,272.1L496.7,268L503.1,261.1L509.7,257.7L516.6,259.8L523.9,253.1L522.1,245.4L520.5,236.8L524.7,228.5L522.8,217L522.4,207.7L526.5,196.9L530.9,188.5L536.5,185.4L540.3,180.1L542.8,173.8Z" />
  <path id="br-PR" data-uf="PR" data-name="Paraná" class="state-path" d="M369.2,598.5L380.3,601.4L390.6,607.5L398.8,607.4L404.5,607.9L409,612.1L411.1,617.9L410.5,622.2L410.8,626.4L412.1,628.9L413.9,632.2L416.2,636.7L415.4,642.1L418.9,644.9L422.2,644.6L426.2,645.2L429,646.3L427.7,651.3L431.7,652.2L434,652.5L436.6,656.4L432.5,663.7L427.9,671.4L421,673.2L417.5,673.4L414.9,675.9L411.8,677.8L409.4,677.1L406.7,674.6L402.7,673.9L399.7,673.8L396.5,674.3L393,675.9L387.1,678.1L382.5,681.5L383.4,685.4L379.5,687.4L372.2,685.8L366.8,683.1L360.3,682.1L352.9,681.1L347.7,678.5L342.5,678.3L341,674.8L339.7,672.7L339.4,670.1L339.2,668L338.6,665.4L337.1,664.6L334.8,663.1L332.7,664.2L329.2,666.5L326.2,661.7L329.1,655.3L329.8,647.7L331.9,638.6L331.9,631.4L342.7,611.3L354.7,599.2L366.9,601.2Z" />
  <path id="br-RJ" data-uf="RJ" data-name="Rio de Janeiro" class="state-path" d="M496.3,614.9L493.8,615.9L491.8,615.4L491.3,611.3L493.1,607.2L498.2,605.4L501.9,602.3L499.7,599.9L496.8,600.1L493.5,598.8L492.5,595.1L496.6,593.5L500.5,592.7L503.2,590.8L508.1,588.9L511.6,588.6L517,587.3L520,588.9L525.9,585.2L533.4,581.3L533.1,577.8L534.5,573.5L535.6,568.5L536.7,564.6L540.3,561.1L543.2,562.6L543.5,567.8L547,569.4L550.2,570.3L553.2,570.4L555.8,573.8L555,581.3L550.4,590.5L542.5,595.4L539,598.9L540.6,603.2L538.8,605.6L538.3,608L529.1,607.1L522.6,608L520.1,607.1L520.6,604.3L520,602L517.1,604L518.9,606.8L516.9,608.9L512.3,609.9L510.9,608.6L507.6,607.1L504.6,607.6L503.2,608.9L500.9,609.3L499.3,609L499.3,607.4L498.4,607.6L497.4,609L494.5,609.5L493.1,612.2L494.4,612.9L493.8,613.7L495.2,613.9ZM501,610.5L501.6,610.7L501.5,610.8L501.3,610.9L501.4,611L501.5,611.2L501.8,611.2L502,611.1L502,611.3L502.1,611.6L502.3,611.5L502.4,611.3L502.8,611.2L502.6,611.6L502.6,611.8L502.7,612L502.8,611.9L503,611.9L503.4,612.2L503.2,612.4L503,612.6L502.8,612.5L502.7,612.2L502.6,612.2L502.3,612.3L502.2,612.4L502.1,612.6L501.9,612.5L501.7,612.6L501.9,612.8L501.6,612.8L501.3,612.8L501.1,612.8L500.9,612.9L500.7,613L500.6,612.7L500.5,612.7L500.4,612.7L500.4,612.5L500.1,612.4L499.6,612.6L499.4,613L499.3,613.4L499.1,613.3L499,613L499.2,612.8L499.2,612.5L499,612.6L498.8,612.4L498.6,612.5L498.7,612.2L498.9,612.1L499.1,612L499.4,611.9L499.5,611.7L499.6,611.5L499.7,611.5L499.9,611.1L499.9,611.3L500,611.5L500.2,611.4L500.3,611.1L500.7,611L500.7,610.7L500.8,610.6L500.9,610.4ZM507.8,609.8L508,609.8L508,609.8L508.2,609.9L508.4,609.9L508.7,609.9L508.1,610L508,610L507.3,610.1L505.7,610.5L505.4,610.6L505.3,610.7L505.2,610.7L505.2,610.8L505,610.7L505,610.7L504.9,610.6L504.8,610.6L504.8,610.5L504.8,610.3L504.7,610.3L504.8,610.1L504.9,610.1L505,610L505.1,609.8L505.1,609.8L505.2,609.8L505.2,609.8L505.3,609.7L505.4,609.6L505.5,609.5L505.6,609.5L505.6,609.5L505.7,609.4L505.8,609.6L506,609.8L506.1,609.8L506.2,609.8L506.3,609.8L506.3,609.8L506.6,610L506.6,610L506.7,610L506.8,610L506.9,610L506.9,609.9L507,609.9L507,609.8L507,609.7L507,609.6L506.9,609.5L506.8,609.4L506.6,609.2L506.5,609.1L506.7,609.2L506.7,609.3L507.2,609.5L507.3,609.6L507.7,609.7L507.7,609.8L507.8,609.8ZM518.7,603.9L518.8,603.9L518.8,603.8L518.9,603.8L518.9,603.9L518.9,603.8L519,603.8L519.1,603.8L519.1,603.9L519.1,604L519,604.1L518.9,604.2L518.8,604.2L518.7,604.3L518.8,604.4L518.8,604.5L518.8,604.6L518.8,604.7L518.9,604.7L519,604.8L518.9,604.8L518.9,604.9L518.9,604.9L518.8,604.8L518.8,604.8L518.8,604.8L518.7,605L518.6,604.9L518.6,604.8L518.6,604.7L518.3,604.7L518.2,604.6L518.1,604.6L518.1,604.7L518,604.7L518,604.7L517.9,604.8L517.8,604.8L517.7,605L517.6,604.9L517.6,604.8L517.5,604.7L517.4,604.7L517.4,604.6L517.3,604.5L517.3,604.5L517.4,604.4L517.4,604.4L517.5,604.4L517.5,604.4L517.7,604.4L517.7,604.3L517.7,604.2L517.8,604.1L517.9,604L517.9,603.9L518.1,604L518.2,604L518.3,604.1L518.5,604.2L518.6,604.1L518.6,604L518.6,604L518.6,603.9L518.7,603.9ZM506.4,607.3L506.4,607.2L506.4,607.2L506.5,607.1L506.5,607.1L506.6,607.1L506.7,607.1L506.7,607.1L506.7,607L506.8,607.1L506.9,607L506.9,606.9L506.9,606.9L507,607L507.2,607L507,607.3L507,607.3L507,607.4L507.1,607.4L507,607.5L506.9,607.5L506.8,607.5L506.8,607.6L506.7,607.7L506.5,607.7L506.5,607.6L506.5,607.5L506.5,607.4L506.5,607.4L506.4,607.3L506.4,607.3ZM517.8,605.6L517.8,605.5L517.8,605.4L517.7,605.2L517.7,605.2L517.7,605.1L517.8,605.1L517.9,605.1L518,605.1L518,605.1L518,605.2L518,605.2L517.9,605.2L517.9,605.2L517.9,605.4L517.9,605.4L518,605.5L518,605.5L518.1,605.5L518.1,605.6L518.2,605.7L518.1,605.8L518.1,605.8L518,605.8L518,605.7L517.9,605.7L517.8,605.6L517.8,605.6ZM506.1,608.7L506,608.9L506,608.7L506,608.5L506.1,608.5L506.1,608.3L506.3,608.3L506.3,608.4L506.2,608.6L506.1,608.7ZM495,613L495.1,613L495.1,613.1L495,613.1L494.8,613.2L494.8,613.4L494.6,613.4L494.5,613.4L494.5,613.4L494.5,613.4L494.8,613.2L494.9,612.9L495,613ZM504.2,608.6L504.3,608.5L504.3,608.5L504.4,608.7L504.4,608.7L504.3,608.8L504.2,608.7L504.1,608.8L504.1,608.8L504,608.7L504.1,608.6L504.2,608.6ZM493.4,612.1L493.3,612.2L493.2,612L493.2,611.9L493.3,611.9L493.4,611.8L493.4,612L493.4,612.1ZM543.7,595.9L543.7,596L543.6,596L543.6,595.9L543.6,595.8L543.7,595.7L543.8,595.8L543.7,595.9ZM496.3,614.9L496.4,614.9L496.5,615L496.4,615.1L496.3,614.9ZM519.9,603.4L519.9,603.4L520,603.5L520,603.5L519.9,603.6L519.9,603.6L519.9,603.4ZM519.9,603.4L519.9,603.3L519.9,603.1L520,603.2L520,603.3L520,603.3L519.9,603.4ZM518.8,606.3L518.8,606.3L519,606.3L518.9,606.4L518.8,606.3ZM494.1,610.2L494.1,610L494.2,610.1L494.2,610L494.1,610.2L494.1,610.2ZM507.3,607.6L507.3,607.5L507.4,607.5L507.3,607.6L507.2,607.6L507.3,607.6ZM543.9,595.7L543.8,595.7L543.8,595.6L543.9,595.6L543.9,595.7ZM495.1,613L495.1,612.9L495.2,612.9L495.2,613L495.1,613ZM495.2,612.6L495.3,612.5L495.3,612.6L495.2,612.7L495.2,612.6ZM506.4,608.2L506.4,608.2L506.4,608.1L506.5,608.1L506.4,608.2ZM494,613.5L494.2,613.5L494,613.5L494,613.5ZM540.5,603.8L540.6,603.8L540.6,603.9L540.6,603.9L540.6,603.9L540.5,603.9L540.5,603.8ZM502.8,609.3L502.8,609.4L502.8,609.5L502.8,609.3ZM506.3,607.3L506.4,607.3L506.3,607.3L506.3,607.4L506.3,607.3ZM513.1,610L513.2,609.9L513.2,610L513.1,610ZM519.3,609.9L519.4,610L519.3,610L519.3,609.9ZM494.2,613.5L494.2,613.4L494.3,613.4L494.2,613.5ZM505.9,609.1L505.8,609.1L505.9,609L505.9,609.1ZM493.3,613.2L493.3,613.2L493.3,613.3L493.3,613.2ZM505.7,608.7L505.8,608.7L505.7,608.8L505.7,608.7ZM518.3,609.5L518.3,609.4L518.4,609.4L518.3,609.5ZM493.6,610.7L493.6,610.7L493.7,610.7L493.6,610.7ZM505.7,609.1L505.7,609.1L505.8,609.1L505.7,609.1ZM507.3,607.4L507.3,607.5L507.2,607.5L507.3,607.4ZM493.6,611L493.6,611L493.6,611L493.6,611Z" />
  <path id="br-RN" data-uf="RN" data-name="Rio Grande do Norte" class="state-path" d="M620.2,219.7L622.1,220L625.1,220.4L627.8,222.7L629.5,222.8L631.7,222.5L634.4,223.3L638,222.7L640.1,222L642.9,222.7L644.7,223.3L646.8,224L650.3,227.6L651.6,230.5L652.3,232.8L652.8,235.3L653.2,237.4L653.9,240.1L654.6,243.7L655.1,247.2L656.1,250.4L657,253L654.7,253.5L652.7,253.8L648.6,253L647.3,253L645.2,252.3L639,252.2L637.2,251.8L632.3,250.4L631.9,254.5L630.6,256.7L630,260.9L627.2,263.5L623.5,259.6L620.7,259.1L617.9,258L614.8,255.9L616.1,251.2L618.1,248.7L620,245.1L618.2,243.8L615.1,245.7L612.6,246.4L609.7,247.9L608.4,250.5L606.2,251.8L605,252.3L602.7,253.3L600,252.5L597.8,250.8L596.7,250.2L596.8,247.9L598.4,244.4L600.1,244.3L601.8,242.6L604,239.3L604.6,235.6L607.6,231.9L609.6,227.4L611.4,222.2L619.2,218.8Z" />
  <path id="br-RO" data-uf="RO" data-name="Rondônia" class="state-path" d="M126.8,326L122.9,323L131.9,316.4L140,316.8L147.9,313.6L152.5,312.4L160.4,306.7L168.4,298.9L173.4,289.1L192.4,291.8L196.1,298.6L204.2,303.6L210.7,305.3L209.3,316.6L209.8,324.8L209.6,335.2L210.7,344.3L228.3,351L234,352.5L236.9,358.4L233.7,363.6L233.8,367.9L236,371.7L237.1,382.1L232.2,393L229.4,400L224.4,406.3L221.8,407.2L218.7,403.9L215.5,404.7L210.7,405.2L207,404.3L203.8,404L201.3,400.5L199,396.1L196.7,396.3L194.1,394.9L190.8,392.6L187.2,391.3L184.4,388.5L182.3,385.5L177.9,384.8L172.9,381.3L168.1,382.8L164.8,381.8L159.8,379.6L156.2,374.4L154.5,372.7L150.7,370.8L147.1,365.6L145.8,357.6L146.9,350.2L145.3,342.9L144.8,336.8L145.8,327.4L142.9,323.5L139.9,324.3L137.8,323.7L134.8,324.6L131.3,324.8L127.6,326.2ZM126.8,326L126.9,326.1L126.8,326.1L126.8,326Z" />
  <path id="br-RR" data-uf="RR" data-name="Roraima" class="state-path" d="M237,45.7L235.9,51.6L236.6,57.9L238.8,63.8L239.9,68.7L239.8,73.4L241.6,76L245,79L247.6,83.1L252.5,84.9L233.3,112.3L229,124.1L226.6,132.3L220.7,127.4L211.5,127.1L208.5,141L202.1,139.3L193.4,130.3L196.8,125L196.4,114.9L194.4,92.6L185.9,69.7L171.8,61.9L168.4,56L165.1,47.4L163.6,34.6L156.3,25.9L160.5,24.7L166.7,26.9L171.4,28.7L174.3,27.9L178.1,29.2L181.4,29L184.5,34.5L189.5,33.7L189.3,27.8L192.7,25.9L195.2,23.6L199.6,25.5L203.1,24.9L206.3,21.7L209.9,20.1L213,18.3L215,16.1L219.4,15.4L221.9,11.3L225.7,6.8L223.7,1L229.3,1.2L233.6,1.4L235.6,7L234.2,13.9L234.4,16.7L238.3,17.6L240.3,20.8L241.8,26.1L243.3,28.8L241.2,32L238.1,36L238.8,41.2Z" />
  <path id="br-RS" data-uf="RS" data-name="Rio Grande do Sul" class="state-path" d="M369.5,793.2L366,798.9L364.5,811.5L346,839.1L346.2,833.9L350.7,822.9L358,820.2L358.4,806L356.8,810L350.3,816.2L343,810.8L340.2,803.9L335.2,800.8L325.3,790.6L319.9,787.1L314.9,784.8L311.5,779.4L307.6,779.6L302.7,779.8L300.5,774.1L296.4,769.8L292.6,764.9L287.5,761.5L283,764.8L276.7,764L283.9,754.3L291.9,742.6L299.9,732.6L307.8,725.4L311.4,717.9L317.4,714L321.6,708.2L327,704.5L332.1,703.3L337.8,698.2L348.4,697.9L357.4,699.9L367.1,700.8L375.7,705.3L385.4,712.5L393.4,724.6L403.6,725.9L408.8,729L404.6,733L404.6,739.3L401.4,742.1L405.1,742.2L402,758.6L378.1,797.2L370.2,798.4L379.9,791.1L387.9,779.9L393.3,767.7L393.9,763.6L387.8,768.3L383.3,763.3L381.6,762.8L384.7,768.6L379.6,782.6L372.1,787.6ZM382.1,775.4L382.3,776.4L382.3,776.5L382.3,776.7L382.3,776.8L382.2,776.9L382.1,776.8L382.3,776.6L382.2,776.4L382.2,776.4L381.9,776.2L381.7,776.1L381.6,776.1L381.8,776.1L381.8,776.1L381.9,776.1L382.1,775.9L382.1,775.7L382.1,775.7L382.1,775.4ZM402.3,742.8L402.3,742.5L402.5,742.4L402.4,742.5L402.5,742.6L402.3,742.9L402.3,742.8ZM384.6,769.5L384.7,769.4L384.5,770L384.4,770L384.6,769.5ZM404.6,739.2L404.6,739.1L404.8,738.9L404.9,739L404.9,739.1L404.7,739.1L404.8,739.2L404.6,739.2ZM382.1,760.4L382.2,760.5L382.6,760.5L382.2,760.7L382.1,760.4ZM368.5,798.1L368.4,798.1L368.4,797.9L368.7,797.9L368.5,798.1ZM346.4,826.6L346.3,826.7L346.3,826.5L346.4,826.4L346.4,826.3L346.5,826.2L346.6,826.2L346.5,826.3L346.4,826.4L346.4,826.5L346.4,826.6ZM404.4,740.3L404.5,740.2L404.5,740.2L404.5,740.3L404.4,740.3ZM379.2,792.6L379.3,792.5L379.3,792.6L379.3,792.8L379.2,792.7L379.2,792.6L379.2,792.6ZM384.2,765L384.4,764.9L384.3,765L384.2,765ZM385.3,764.9L385.4,764.7L385.4,764.8L385.3,764.9ZM369.5,793L369.5,793.2L369.4,793.1L369.5,793ZM383.8,764.3L383.9,764.3L383.9,764.4L383.8,764.3Z" />
  <path id="br-SC" data-uf="SC" data-name="Santa Catarina" class="state-path" d="M341.3,685.2L341.8,682.4L342.6,679.1L348.1,678.7L354.8,680.8L362.4,682.5L368.7,684.2L376,685.4L382.3,687.2L382.6,683.1L384.8,679.2L391.4,678.5L396.2,673.9L399.7,674.3L402.7,673.9L406.8,674.6L409.8,677.6L412.4,677.5L416.1,674.9L419.1,673.3L426.8,672.4L428.6,679.3L426.2,688.3L427,693.3L427.3,696.7L429.2,699L427.7,701.6L428,703.5L427.8,707.3L427.8,713L427.5,717L426.4,721.2L424.5,727.9L411.7,740.3L405.4,742.2L402.5,744.5L402.3,742.5L403.8,741.1L404.6,738.8L404.7,734.9L405.8,732.2L408.5,729.6L407,726.4L403.3,726.5L398,726L391.2,720.9L387.2,715L381.6,709.2L375.8,705.8L371,703.6L365.8,700.8L360.3,700L353.9,699.3L349.3,698.4L342.7,699.4L339.9,697L340.8,695.2L341.7,693.1L341.5,689.8L341.1,687.7ZM430.7,703.1L430.9,703.8L431.2,704.2L431.4,704L431.5,704.3L431.3,704.6L431.1,705.2L430.6,705.9L430.4,706.5L430.4,706.9L430.5,707L430.4,707.5L430.3,708L430.1,708.1L430,708.3L429.6,709L429.5,709.6L429.1,710.3L429.2,711L429.5,711.1L429.5,711.2L429.4,711.7L429.1,711.5L428.7,711.6L428.6,711.9L428.2,712.7L428.1,712.4L428,711.9L427.9,711.4L427.9,711.2L428.2,710.7L428.1,710.2L428.3,709.8L428.1,709.7L428,709.3L428.1,709L428.4,708.6L428.7,708.7L428.7,707.9L428.3,707.9L428.2,707.6L428.4,707.2L428.6,707L428.8,706.8L429,706.6L428.7,706.3L428.8,705.9L428.8,705.5L428.7,705.3L428.5,705L428.7,704.8L428.8,704.6L428.6,704.4L428.7,704.3L428.8,703.9L429.5,704L430,703.9L430.4,703.4L430.3,703L430.7,703ZM428.1,705L428.1,704.9L428.1,705L428.1,705Z" />
  <path id="br-SE" data-uf="SE" data-name="Sergipe" class="state-path" d="M606.6,318.7L609.2,320.3L611,320.9L614.9,323.3L618,325.1L622.1,328.5L623.5,329.5L624.1,331.5L625.4,332.6L627,334.1L629.1,334.3L630.3,337.9L631.8,337.5L632.8,339.9L631.3,340.3L629.2,341.4L627,343.1L624.9,345.2L623,348.1L621.5,350.7L620.6,352.5L619.3,355.1L617.7,358.5L616.5,360L614.1,361.8L612.9,361.6L611.9,361.4L611,362.3L610.1,361.7L609.2,360.9L608.5,359.9L608,359.4L607.4,358.9L606.7,358.8L606.5,358.3L606.2,357.4L606.2,356.1L606.1,355.2L605.9,354.4L604.7,353.2L604.5,351.6L604.2,350.6L602.9,349.5L602.1,348.2L601.9,346L602.6,343.9L604.2,344L605.6,345.2L608.7,340.7L609.1,339.7L608.6,337.4L609.1,336.6L609.7,332.8L608.8,328.7L606.2,327L606.3,325.3L605.3,323.3L606.2,321.1L605.3,320.3L605.6,319Z" />
  <path id="br-SP" data-uf="SP" data-name="São Paulo" class="state-path" d="M468.9,627.1L466.4,630.8L464.5,630.6L453.1,639.6L443.9,647.3L437.1,656.9L434.6,654.6L431.9,652.5L427.9,650.7L428.4,645.6L424.5,645.1L419.5,644.6L415.6,641.9L415.6,635.7L412.6,630.6L410.5,626.9L410.5,622.4L410.6,617.2L407.2,610.6L401.1,607.4L391.6,607.8L378.4,601.9L367.6,600.9L352.1,600.8L368.5,581.6L376.6,562.8L387.9,544.7L401,541.3L415.6,545.6L423.3,547.8L434.6,546.1L443.9,544.9L449.6,551.1L452.6,557.8L452,566.8L454.2,574L458.1,573.5L462.7,575.9L459.6,583.5L459.7,589.1L459.6,594.4L463.9,598.6L463.9,602.7L467.9,605.8L473.8,605.3L474.8,602L478.5,600.8L484.4,599.2L492.8,597.3L496.7,600.1L500.8,600.1L500.2,605L493.1,607.2L490.6,612.3L491.4,616.8L487.5,617.6L486.1,619.4L483.8,621.3L481.3,624.2L477.7,625.9L471.4,625.7ZM482.7,628.3L482.5,628.4L482.3,628.4L482.2,628.4L482,628.6L481.7,628.6L481.4,628.7L480.9,628.8L480.6,628.7L480.4,628.4L480.3,627.9L480.5,627.6L480.6,627.5L480.7,627.3L480.8,627.2L481.1,627.1L481.2,626.8L481.5,626.5L481.7,626.3L481.9,626L482,625.5L482.1,625.3L482.2,625.2L482.2,624.9L482.3,624.5L482.6,624.1L482.9,624.3L483.1,624.3L483.2,624.4L483.5,624.5L483.8,624.7L483.7,624.9L483.9,625L484.2,625.3L484.1,625.6L484.1,625.8L484,626L484.1,626.2L483.9,626.3L484,626.5L484,626.6L484.3,626.6L483.9,626.6L483.6,626.6L483.4,626.7L483.3,627L483.2,627.2L483.6,627.4L483.4,627.6L483.7,627.8L484,627.9L484.1,627.9L484.3,628.1L484.1,628.1L484.2,628.6L484.1,628.9L484.1,629L483.9,629.4L483.6,629.3L483.4,629L483.3,628.7L483.4,628.6L483.2,628.2L483,628.1L482.8,628.3ZM486.8,620.1L486.9,620.2L487,620.2L487.1,620.1L487.1,619.9L487.4,620L487.4,620.1L487.4,620.2L487.3,620.3L487.1,620.3L486.9,620.6L486.8,620.7L486.8,620.7L486.7,620.6L486.7,620.5L486.8,620.3L486.7,620.2L486.7,620.2L486.7,620.1L486.7,620L486.7,619.9L486.8,620L486.8,620.1ZM485.7,625.8L486.2,626L486.1,626.1L486.1,626.2L485.9,626.1L485.6,626.3L485.5,626.1L485.4,625.9L485.6,625.7L485.8,625.6L485.7,625.7L485.7,625.8ZM485.3,620.8L485.5,620.6L485.5,620.7L485.6,620.8L485.6,620.9L485.6,620.8L485.5,620.8L485.4,620.9L485.4,620.8L485.3,620.8ZM487.8,624.9L487.8,624.8L487.9,624.8L487.9,624.9L487.9,625L487.8,625.1L487.7,625L487.8,624.9ZM475,627.3L474.9,627.3L474.8,627.3L474.8,627.1L474.9,627.1L475,627L475,627.1L475,627.3ZM483.1,621.4L483.2,621.4L483.3,621.3L483.4,621.3L483.3,621.5L483.2,621.5L483.1,621.5L483.1,621.4ZM487.8,624.8L487.7,624.8L487.7,624.6L487.8,624.6L487.8,624.7L487.8,624.7L487.8,624.8ZM475.9,625.8L476,625.8L476.1,625.9L476,625.9L475.9,625.9L475.9,625.8ZM479.2,626.9L479.3,626.8L479.3,626.8L479.3,627L479.2,627L479.2,626.9ZM456,638.5L456,638.4L456.1,638.6L456,638.6L456,638.6L456,638.5ZM455.9,638.2L456,638.2L456,638.2L456,638.3L455.9,638.2L455.9,638.2ZM487.5,620.4L487.6,620.3L487.7,620.3L487.7,620.4L487.5,620.4ZM490.6,617.2L490.6,617.3L490.5,617.1L490.6,617.1L490.6,617.2ZM489,616.9L489,616.8L489.1,616.8L489,616.9L489,616.9ZM454.8,638.1L454.8,638L454.8,638.1L454.8,638.1L454.8,638.1ZM439,655.2L439.1,655.1L439.1,655.2L439,655.2ZM484.2,626.1L484.3,626.1L484.2,626.2L484.2,626.1ZM482.6,628.3L482.7,628.3L482.7,628.3L482.6,628.4L482.6,628.3L482.6,628.3ZM476.1,625.6L476.1,625.5L476.2,625.5L476.1,625.6ZM483.4,626.9L483.4,627L483.4,626.9L483.4,626.9L483.4,626.9L483.4,626.9ZM483.1,628.4L483.1,628.3L483.1,628.4L483.1,628.4ZM485.5,626.5L485.5,626.4L485.5,626.5L485.5,626.5ZM476.8,625.9L476.8,625.8L476.8,625.9L476.8,625.9Z" />
  <path id="br-TO" data-uf="TO" data-name="Tocantins" class="state-path" d="M453.9,306.8L455.7,309.3L458.8,315.9L460.4,323.1L466.7,332.6L474.3,337.5L466.6,346.4L462.9,361L466.1,363.7L468.3,369.8L464.9,377.1L468.6,383L466.6,391.9L465,390.3L456.5,394.4L452.6,397.2L447.9,398.5L443.6,396.4L443.4,402.2L436.7,398.8L434.9,396.7L431.8,398.7L429.6,397.4L427.8,397.4L425.6,393.3L422.8,389.4L417.2,390.7L407,393.8L400.3,390.7L399,386.6L401,380.8L397.7,384.1L395.8,388.5L392.1,385.2L392.6,374.5L392.7,364.7L393.5,350.3L395.7,338.8L400.5,324.2L406.1,309.4L417.1,289.8L416.8,271.2L426.6,256.6L432,245.6L434,233L425.1,228.7L436.9,226.7L447.2,241.2L445.5,263.6L445.9,273.5L448.8,277.8L450.3,281L451.7,283.1L454.1,287L457.2,284.8L460.6,283.5L462.4,292L457.2,295.7L456.1,298.9L455.8,303.7Z" />
  <path id="br-DF" data-uf="DF" data-name="Distrito Federal" class="state-path" d="M449.2,458.7L449.1,459L446.6,459L440.7,459L436.7,459L433.1,459L433,458.1L433.2,457.2L433.3,456.7L433.2,456.4L433,456.2L432.9,455.5L432.9,455.2L432.8,454.5L433.5,453.5L433.8,453L434.1,452L433.6,450.5L434.1,449.7L434.3,447.1L444,447.1L446.6,447.1L447.4,448.1L447.9,448.6L448.1,448.8L448.7,448.9L449,449.2L448.9,450.3L448.8,451L449.2,451.3L449.1,452L449.1,452.2L449,452.6L448.9,453.1L448.7,453.5L448.6,453.7L448.5,454.1L448.3,454.2L448.2,454.7L448.2,455L448.1,455.7L448.3,455.9L448.4,456.4L448.2,456.5L448.1,457.1L448.1,457.2L448.2,457.5L448.2,457.9L448.6,458L448.7,458.1L448.8,458.2L449,458.5L449.1,458.7Z" />
</svg>